<svg width="299" height="299" viewBox="0 0 299 299" fill="none" xmlns="http://www.w3.org/2000/svg">
<path d="M219.306 145.48C217.698 144.883 215.986 144.52 214.171 144.52C205.9 144.52 199.237 151.186 199.237 159.459V209.261C199.237 219.221 214.171 244.121 214.171 249.102V259.061H283.868C283.868 244.121 288.847 194.321 288.847 174.401C288.847 137.62 242.149 109.296 219.306 97.3394V145.48Z" fill="#FFC6A0"/>
<path d="M214.327 97.3394V145.48C214.327 145.48 224.128 153.001 224.128 159.459V102.734C220.576 100.685 217.257 98.8693 214.327 97.3394Z" fill="#FFAF7A"/>
<path d="M174.345 264.042C174.345 283.367 158.812 298.902 139.496 298.902H44.9062C25.5886 298.902 10.0575 283.367 10.0575 264.042V34.9583C10.0575 15.6335 25.5886 0.0980225 44.9062 0.0980225H139.496C158.812 0.0980225 174.345 15.6335 174.345 34.9583C174.345 111.319 174.345 187.681 174.345 264.042Z" fill="#8DCDFB"/>
<path d="M154.43 264.042C154.43 272.317 147.767 278.982 139.496 278.982H44.9062C36.6353 278.982 29.9706 272.317 29.9706 264.042V34.9583C29.9706 26.6831 36.6353 20.0184 44.9062 20.0184H54.8628L64.8194 29.9779H119.581L129.539 20.0184H139.496C147.767 20.0184 154.43 26.6831 154.43 34.9583V264.042Z" fill="#E4EFF8"/>
<path d="M174.345 204.281H154.43V214.242H174.345V204.281Z" fill="#4992CB"/>
<path d="M54.8628 84.7585V214.242H154.43C154.43 171.08 154.43 127.92 154.43 84.7585H54.8628Z" fill="#C4DCF0"/>
<path d="M129.539 0.0980225C148.855 0.0980225 164.388 15.6335 164.388 34.9583C164.388 111.319 164.388 187.681 164.388 264.042C164.388 283.367 148.855 298.902 129.539 298.902H139.496C158.812 298.902 174.345 283.367 174.345 264.042C174.345 187.681 174.345 111.319 174.345 34.9583C174.345 15.6335 158.812 0.0980225 139.496 0.0980225H129.539Z" fill="#4992CB"/>
<path d="M54.8628 79.7795V209.261H203.955C214.093 209.261 219.15 204.281 219.15 194.321V94.7194C219.15 84.7585 214.093 79.7795 203.955 79.7795H54.8628Z" fill="#68A4D4"/>
<path d="M219.15 97.3394V102.837C243.367 116.818 278.891 142.393 278.891 174.401C278.891 194.321 273.912 239.141 273.912 254.082H283.868C283.868 239.141 288.847 194.321 288.847 174.401C288.847 137.62 241.993 109.296 219.15 97.3394ZM209.349 145.376C209.297 145.402 209.245 145.402 209.193 145.428C209.245 145.454 209.297 145.454 209.349 145.48" fill="#FFAF7A"/>
<path d="M194.258 169.42V189.341H204.214V169.42H194.258Z" fill="#C4DCF0"/>
<path d="M193.998 79.7795C204.136 79.7795 209.193 84.7585 209.193 94.7194V194.321C209.193 204.281 204.136 209.261 193.998 209.261H203.955C214.093 209.261 219.15 204.281 219.15 194.321V94.7194C219.15 84.7585 214.093 79.7795 203.955 79.7795H193.998Z" fill="#4992CB"/>
<path d="M214.171 254.082V249.102C214.171 244.121 199.237 219.221 199.237 209.261V159.459C199.237 151.186 205.9 144.52 214.171 144.52C222.443 144.52 229.106 151.186 229.106 159.459V254.082H214.171Z" fill="#FFC6A0"/>
<path d="M212.615 244.121C213.523 246.3 214.171 248.141 214.171 249.102V259.061H283.868C283.868 256.572 284.05 248.038 284.284 244.121H212.615Z" fill="#FFAF7A"/>
<path d="M54.8628 169.42H194.258V189.341H54.8628V169.42Z" fill="#E4EFF8"/>
<path d="M209.193 145.428C215.001 147.477 219.15 152.949 219.15 159.459V194.321C219.15 197.071 221.379 199.3 224.127 199.3C226.877 199.3 229.107 197.071 229.107 194.321V159.459C229.107 151.186 222.443 144.52 214.171 144.52C212.407 144.52 210.749 144.883 209.193 145.428Z" fill="#FFAF7A"/>
<path d="M44.9062 20.0184C36.6353 20.0184 29.9706 26.6831 29.9706 34.9583V264.042C29.9706 270.812 34.4565 276.441 40.628 278.282C40.2127 276.933 39.9272 275.507 39.9272 274.003V44.9178C39.9272 36.644 46.5918 29.9779 54.8628 29.9779H59.8418L69.7984 39.9388H124.56L134.517 29.9779H149.452C150.956 29.9779 152.382 30.2634 153.731 30.6787C151.889 24.5043 146.263 20.0184 139.496 20.0184H129.539L119.581 29.9779H69.7984L59.8418 20.0184H44.9062Z" fill="#C4DCF0"/>
<path d="M54.8628 109.659V139.541H89.7115C92.4599 139.541 94.6905 137.31 94.6905 134.56V114.64C94.6905 111.89 92.4599 109.659 89.7115 109.659H54.8628Z" fill="#FFCA28"/>
<path d="M214.171 254.082H283.868C286.617 254.082 288.847 256.313 288.847 259.061V288.943C288.847 291.692 286.617 293.923 283.868 293.923H214.171C211.423 293.923 209.193 291.692 209.193 288.943V259.061C209.193 256.313 211.423 254.082 214.171 254.082Z" fill="#68A4D4"/>
<path d="M278.891 254.082V293.923H283.868C286.617 293.923 288.847 291.692 288.847 288.943V259.061C288.847 256.313 286.617 254.082 283.868 254.082H278.891Z" fill="#4992CB"/>
<path d="M54.8628 79.7795V209.261H64.8194V79.7795H54.8628Z" fill="#4992CB"/>
<path d="M54.8628 109.659V139.541H64.8194V109.659H54.8628Z" fill="#ECB200"/>
<path d="M54.8628 169.42V189.341H64.8194V169.42H54.8628Z" fill="#C4DCF0"/>
<path d="M59.8418 74.7991C59.8418 68.1589 49.8838 68.1589 49.8838 74.7991V214.242C49.8838 220.882 59.8418 220.882 59.8418 214.242V74.7991Z" fill="#C4DCF0"/>
</svg>
