<svg width="19" height="24" viewBox="0 0 19 24" fill="none" xmlns="http://www.w3.org/2000/svg">
<path d="M0.5 3C0.5 2.20435 0.81607 1.44129 1.37868 0.87868C1.94129 0.316071 2.70435 0 3.5 0L15.5 0C16.2956 0 17.0587 0.316071 17.6213 0.87868C18.1839 1.44129 18.5 2.20435 18.5 3V23.25C18.4999 23.3857 18.4631 23.5188 18.3933 23.6351C18.3236 23.7515 18.2236 23.8468 18.104 23.9108C17.9844 23.9748 17.8497 24.0052 17.7142 23.9988C17.5787 23.9923 17.4474 23.9492 17.3345 23.874L9.5 19.6515L1.6655 23.874C1.55256 23.9492 1.42135 23.9923 1.28584 23.9988C1.15033 24.0052 1.0156 23.9748 0.895999 23.9108C0.776399 23.8468 0.676406 23.7515 0.606671 23.6351C0.536936 23.5188 0.50007 23.3857 0.5 23.25V3ZM3.5 1.5C3.10218 1.5 2.72064 1.65804 2.43934 1.93934C2.15804 2.22064 2 2.60218 2 3V21.849L9.0845 18.126C9.20759 18.0441 9.35215 18.0004 9.5 18.0004C9.64785 18.0004 9.79241 18.0441 9.9155 18.126L17 21.849V3C17 2.60218 16.842 2.22064 16.5607 1.93934C16.2794 1.65804 15.8978 1.5 15.5 1.5H3.5Z" fill="#0695DB"/>
</svg>
