<svg width="52" height="53" viewBox="0 0 52 53" fill="none" xmlns="http://www.w3.org/2000/svg">
<g filter="url(#filter0_d_843_1287)">
<circle cx="26.0294" cy="22.3822" r="21.7689" fill="white"/>
</g>
<g clip-path="url(#clip0_843_1287)">
<path d="M41.2017 23.0419C41.2017 27.2408 39.5337 31.2677 36.5646 34.2368C33.5956 37.2058 29.5687 38.8738 25.3698 38.8738C21.1709 38.8738 17.144 37.2058 14.1749 34.2368C11.2058 31.2677 9.53784 27.2408 9.53784 23.0419C9.53784 22.692 9.67684 22.3564 9.92426 22.109C10.1717 21.8616 10.5073 21.7226 10.8572 21.7226C11.2071 21.7226 11.5427 21.8616 11.7901 22.109C12.0375 22.3564 12.1765 22.692 12.1765 23.0419C12.1765 25.6513 12.9503 28.2021 14.4 30.3717C15.8497 32.5413 17.9102 34.2323 20.3209 35.2309C22.7317 36.2295 25.3844 36.4907 27.9437 35.9817C30.5029 35.4726 32.8537 34.2161 34.6988 32.3709C36.5439 30.5258 37.8005 28.175 38.3095 25.6158C38.8186 23.0565 38.5573 20.4038 37.5588 17.993C36.5602 15.5823 34.8692 13.5218 32.6996 12.0721C30.5299 10.6224 27.9792 9.84862 25.3698 9.84862C25.0199 9.84862 24.6843 9.70962 24.4369 9.46219C24.1894 9.21477 24.0504 8.8792 24.0504 8.52929C24.0504 8.17938 24.1894 7.84381 24.4369 7.59638C24.6843 7.34896 25.0199 7.20996 25.3698 7.20996C29.5673 7.2145 33.5915 8.88396 36.5596 11.852C39.5277 14.8201 41.1972 18.8444 41.2017 23.0419ZM23.0966 21.7226H20.0925C19.7426 21.7226 19.407 21.8616 19.1596 22.109C18.9121 22.3564 18.7731 22.692 18.7731 23.0419C18.7731 23.3918 18.9121 23.7274 19.1596 23.9748C19.407 24.2222 19.7426 24.3612 20.0925 24.3612H23.0966C23.2981 24.7111 23.5774 25.01 23.9129 25.2346C24.2485 25.4592 24.6312 25.6036 25.0315 25.6565C25.4318 25.7095 25.8389 25.6696 26.2213 25.5399C26.6037 25.4102 26.9511 25.1942 27.2366 24.9087C27.5221 24.6232 27.7381 24.2758 27.8678 23.8934C27.9974 23.511 28.0374 23.1039 27.9844 22.7036C27.9315 22.3033 27.7871 21.9206 27.5625 21.585C27.3379 21.2495 27.039 20.9702 26.6891 20.7687V16.4453C26.6891 16.0953 26.5501 15.7598 26.3027 15.5123C26.0553 15.2649 25.7197 15.1259 25.3698 15.1259C25.0199 15.1259 24.6843 15.2649 24.4369 15.5123C24.1894 15.7598 24.0504 16.0953 24.0504 16.4453V20.7687C23.6552 20.9986 23.3265 21.3273 23.0966 21.7226V21.7226ZM11.9483 18.7989C12.2092 18.7989 12.4643 18.7216 12.6812 18.5766C12.8982 18.4316 13.0673 18.2256 13.1672 17.9845C13.267 17.7434 13.2931 17.4781 13.2422 17.2222C13.1913 16.9663 13.0657 16.7312 12.8812 16.5467C12.6966 16.3622 12.4616 16.2365 12.2056 16.1856C11.9497 16.1347 11.6844 16.1609 11.4434 16.2607C11.2023 16.3606 10.9962 16.5297 10.8513 16.7466C10.7063 16.9636 10.6289 17.2187 10.6289 17.4796C10.6289 17.8295 10.7679 18.1651 11.0153 18.4125C11.2628 18.6599 11.5983 18.7989 11.9483 18.7989ZM15.1067 14.0797C15.3677 14.0797 15.6227 14.0023 15.8397 13.8574C16.0567 13.7124 16.2258 13.5063 16.3256 13.2653C16.4255 13.0242 16.4516 12.7589 16.4007 12.503C16.3498 12.2471 16.2241 12.012 16.0396 11.8275C15.8551 11.643 15.62 11.5173 15.3641 11.4664C15.1082 11.4155 14.8429 11.4416 14.6018 11.5415C14.3608 11.6413 14.1547 11.8104 14.0097 12.0274C13.8648 12.2444 13.7874 12.4994 13.7874 12.7604C13.7874 13.1103 13.9264 13.4459 14.1738 13.6933C14.4212 13.9407 14.7568 14.0797 15.1067 14.0797ZM19.8009 10.9582C20.0618 10.9582 20.3169 10.8808 20.5339 10.7358C20.7508 10.5909 20.9199 10.3848 21.0198 10.1437C21.1196 9.90265 21.1458 9.63738 21.0949 9.38146C21.044 9.12553 20.9183 8.89045 20.7338 8.70594C20.5493 8.52143 20.3142 8.39577 20.0583 8.34487C19.8024 8.29396 19.5371 8.32009 19.296 8.41994C19.0549 8.5198 18.8489 8.6889 18.7039 8.90586C18.5589 9.12283 18.4816 9.3779 18.4816 9.63884C18.4816 9.98875 18.6206 10.3243 18.868 10.5717C19.1154 10.8192 19.451 10.9582 19.8009 10.9582Z" fill="#0695DB"/>
</g>
<defs>
<filter id="filter0_d_843_1287" x="0.260498" y="0.613281" width="51.5378" height="51.5376" filterUnits="userSpaceOnUse" color-interpolation-filters="sRGB">
<feFlood flood-opacity="0" result="BackgroundImageFix"/>
<feColorMatrix in="SourceAlpha" type="matrix" values="0 0 0 0 0 0 0 0 0 0 0 0 0 0 0 0 0 0 127 0" result="hardAlpha"/>
<feOffset dy="4"/>
<feGaussianBlur stdDeviation="2"/>
<feComposite in2="hardAlpha" operator="out"/>
<feColorMatrix type="matrix" values="0 0 0 0 0 0 0 0 0 0 0 0 0 0 0 0 0 0 0.25 0"/>
<feBlend mode="normal" in2="BackgroundImageFix" result="effect1_dropShadow_843_1287"/>
<feBlend mode="normal" in="SourceGraphic" in2="effect1_dropShadow_843_1287" result="shape"/>
</filter>
<clipPath id="clip0_843_1287">
<rect width="31.6639" height="31.6639" fill="white" transform="translate(9.53784 7.20996)"/>
</clipPath>
</defs>
</svg>
