<svg width="52" height="52" viewBox="0 0 52 52" fill="none" xmlns="http://www.w3.org/2000/svg">
<g filter="url(#filter0_d_843_1285)">
<circle cx="26.0294" cy="21.9369" r="21.7689" fill="white"/>
</g>
<g clip-path="url(#clip0_843_1285)">
<path d="M34.8799 8.02881H17.179C15.5029 8.03082 13.8961 8.6975 12.711 9.88263C11.5259 11.0678 10.8592 12.6746 10.8572 14.3506V29.5229C10.8592 31.1989 11.5259 32.8057 12.711 33.9908C13.8961 35.1759 15.5029 35.8426 17.179 35.8446H34.8799C36.556 35.8426 38.1628 35.1759 39.3479 33.9908C40.533 32.8057 41.1997 31.1989 41.2017 29.5229V14.3506C41.1997 12.6746 40.533 11.0678 39.3479 9.88263C38.1628 8.6975 36.556 8.03082 34.8799 8.02881V8.02881ZM17.179 10.5575H34.8799C35.637 10.559 36.3763 10.787 37.0027 11.2122C37.6291 11.6374 38.114 12.2403 38.3948 12.9434L28.7124 22.6271C27.9999 23.3368 27.0351 23.7352 26.0294 23.7352C25.0238 23.7352 24.059 23.3368 23.3465 22.6271L13.664 12.9434C13.9449 12.2403 14.4298 11.6374 15.0562 11.2122C15.6826 10.787 16.4219 10.559 17.179 10.5575V10.5575ZM34.8799 33.3159H17.179C16.173 33.3159 15.2082 32.9163 14.4969 32.205C13.7855 31.4936 13.3859 30.5288 13.3859 29.5229V16.2471L21.5587 24.4149C22.7454 25.5986 24.3532 26.2634 26.0294 26.2634C27.7057 26.2634 29.3135 25.5986 30.5002 24.4149L38.673 16.2471V29.5229C38.673 30.5288 38.2734 31.4936 37.562 32.205C36.8507 32.9163 35.8859 33.3159 34.8799 33.3159Z" fill="#0695DB"/>
</g>
<defs>
<filter id="filter0_d_843_1285" x="0.260498" y="0.167969" width="51.5378" height="51.5376" filterUnits="userSpaceOnUse" color-interpolation-filters="sRGB">
<feFlood flood-opacity="0" result="BackgroundImageFix"/>
<feColorMatrix in="SourceAlpha" type="matrix" values="0 0 0 0 0 0 0 0 0 0 0 0 0 0 0 0 0 0 127 0" result="hardAlpha"/>
<feOffset dy="4"/>
<feGaussianBlur stdDeviation="2"/>
<feComposite in2="hardAlpha" operator="out"/>
<feColorMatrix type="matrix" values="0 0 0 0 0 0 0 0 0 0 0 0 0 0 0 0 0 0 0.25 0"/>
<feBlend mode="normal" in2="BackgroundImageFix" result="effect1_dropShadow_843_1285"/>
<feBlend mode="normal" in="SourceGraphic" in2="effect1_dropShadow_843_1285" result="shape"/>
</filter>
<clipPath id="clip0_843_1285">
<rect width="30.3445" height="30.3445" fill="white" transform="translate(10.8572 6.76465)"/>
</clipPath>
</defs>
</svg>
