<svg width="52" height="53" viewBox="0 0 52 53" fill="none" xmlns="http://www.w3.org/2000/svg">
<g filter="url(#filter0_d_843_1286)">
<circle cx="26.0294" cy="22.4999" r="21.7689" fill="white"/>
</g>
<path d="M37.4274 30.8152C37.4274 31.2505 37.3306 31.698 37.125 32.1334C36.9194 32.5688 36.6534 32.98 36.3027 33.367C35.7101 34.02 35.057 34.4917 34.3193 34.794C33.5936 35.0964 32.8075 35.2536 31.961 35.2536C30.7274 35.2536 29.4092 34.9633 28.0184 34.3707C26.6276 33.7781 25.2368 32.98 23.8581 31.9762C22.4673 30.9603 21.1491 29.8356 19.8913 28.5899C18.6457 27.3321 17.5209 26.0139 16.5171 24.6352C15.5255 23.2565 14.7273 21.8778 14.1468 20.5112C13.5663 19.1325 13.276 17.8143 13.276 16.5565C13.276 15.7341 13.4211 14.948 13.7114 14.2224C14.0016 13.4847 14.4612 12.8074 15.1022 12.2027C15.8762 11.4408 16.7227 11.0659 17.6177 11.0659C17.9563 11.0659 18.2949 11.1385 18.5973 11.2836C18.9117 11.4287 19.1899 11.6464 19.4076 11.9609L22.2133 15.9155C22.431 16.2179 22.5883 16.4961 22.6971 16.7621C22.8059 17.0161 22.8664 17.2701 22.8664 17.4998C22.8664 17.7901 22.7818 18.0803 22.6124 18.3585C22.4552 18.6367 22.2254 18.9269 21.9352 19.2172L21.0161 20.1726C20.883 20.3056 20.8226 20.4628 20.8226 20.6563C20.8226 20.7531 20.8346 20.8377 20.8588 20.9345C20.8951 21.0312 20.9314 21.1038 20.9556 21.1764C21.1733 21.5755 21.5482 22.0955 22.0803 22.7244C22.6245 23.3533 23.205 23.9942 23.8339 24.6352C24.487 25.2762 25.1159 25.8688 25.7568 26.413C26.3857 26.9451 26.9058 27.3079 27.3169 27.5256C27.3774 27.5498 27.45 27.5861 27.5346 27.6224C27.6314 27.6587 27.7281 27.6708 27.837 27.6708C28.0426 27.6708 28.1998 27.5982 28.3328 27.4652L29.252 26.5581C29.5543 26.2558 29.8446 26.026 30.1227 25.8809C30.4009 25.7116 30.679 25.6269 30.9814 25.6269C31.2112 25.6269 31.453 25.6753 31.7191 25.7841C31.9852 25.893 32.2633 26.0502 32.5657 26.2558L36.5687 29.0978C36.8832 29.3155 37.1009 29.5695 37.2339 29.8718C37.3548 30.1742 37.4274 30.4765 37.4274 30.8152Z" stroke="#0695DB" stroke-width="1.5" stroke-miterlimit="10"/>
<defs>
<filter id="filter0_d_843_1286" x="0.260498" y="0.730957" width="51.5378" height="51.5376" filterUnits="userSpaceOnUse" color-interpolation-filters="sRGB">
<feFlood flood-opacity="0" result="BackgroundImageFix"/>
<feColorMatrix in="SourceAlpha" type="matrix" values="0 0 0 0 0 0 0 0 0 0 0 0 0 0 0 0 0 0 127 0" result="hardAlpha"/>
<feOffset dy="4"/>
<feGaussianBlur stdDeviation="2"/>
<feComposite in2="hardAlpha" operator="out"/>
<feColorMatrix type="matrix" values="0 0 0 0 0 0 0 0 0 0 0 0 0 0 0 0 0 0 0.25 0"/>
<feBlend mode="normal" in2="BackgroundImageFix" result="effect1_dropShadow_843_1286"/>
<feBlend mode="normal" in="SourceGraphic" in2="effect1_dropShadow_843_1286" result="shape"/>
</filter>
</defs>
</svg>
