<svg width="62" height="59" viewBox="0 0 62 59" fill="none" xmlns="http://www.w3.org/2000/svg">
<path d="M38.3723 12.8008H23.3858C18.4229 12.8008 14.3795 16.8574 14.3795 21.8367V36.8724C14.3795 41.8517 18.4229 45.9083 23.3858 45.9083H38.3723C43.3353 45.9083 47.3787 41.8517 47.3787 36.8724V21.861C47.3787 16.8574 43.3353 12.8008 38.3723 12.8008ZM44.5459 36.8968C44.5459 40.3215 41.7858 43.0906 38.3723 43.0906H23.3858C19.9723 43.0906 17.188 40.3215 17.188 36.8968V21.861C17.188 18.4363 19.9723 15.6429 23.3858 15.6429H38.3723C41.7858 15.6429 44.5459 18.412 44.5459 21.861V36.8968Z" fill="white"/>
<path d="M41.9071 20.3061C41.9071 21.4234 41.0111 22.3466 39.8733 22.3466C38.7597 22.3466 37.8395 21.4477 37.8395 20.3061C37.8395 19.1889 38.7355 18.2656 39.8733 18.2656C41.0111 18.29 41.9071 19.1889 41.9071 20.3061Z" fill="white"/>
<path d="M30.867 20.9375C26.2429 20.9375 22.4656 24.7272 22.4656 29.3665C22.4656 34.0057 26.2429 37.7954 30.867 37.7954C35.491 37.7954 39.2683 34.0057 39.2683 29.3665C39.2683 24.7272 35.5153 20.9375 30.867 20.9375ZM30.867 34.9533C27.7923 34.9533 25.2984 32.4512 25.2984 29.3665C25.2984 26.2817 27.7923 23.7796 30.867 23.7796C33.9416 23.7796 36.4355 26.2817 36.4355 29.3665C36.4355 32.4512 33.9416 34.9533 30.867 34.9533Z" fill="white"/>
<path d="M30.867 58.1993C15.0329 58.1993 2.12875 45.2771 2.12875 29.3668C2.12875 13.4808 15.0329 0.53418 30.867 0.53418C46.7252 0.53418 59.6051 13.4808 59.6051 29.3668C59.6051 45.2771 46.7252 58.1993 30.867 58.1993ZM30.867 2.11305C15.8804 2.11305 3.70245 14.331 3.70245 29.3668C3.70245 44.4025 15.8804 56.6205 30.867 56.6205C45.8535 56.6205 58.0315 44.4025 58.0315 29.3668C58.0315 14.331 45.8535 2.11305 30.867 2.11305Z" fill="white"/>
</svg>
