<svg width="57" height="58" viewBox="0 0 57 58" fill="none" xmlns="http://www.w3.org/2000/svg">
<circle cx="28.6263" cy="28.6849" r="27.7655" stroke="white" stroke-width="1.2"/>
<path d="M42.1401 22.4576C42.16 22.7539 42.16 23.0502 42.16 23.3489C42.16 32.4609 35.2233 42.969 22.5395 42.969V42.9637C18.7924 42.9698 15.1232 41.8968 11.969 39.8728C12.5136 39.9382 13.0615 39.971 13.6106 39.9723C16.7157 39.9751 19.7322 38.9329 22.1752 37.0145C19.2241 36.9589 16.6365 35.0347 15.7324 32.2255C16.7665 32.4252 17.831 32.3842 18.8456 32.1066C15.628 31.4564 13.3137 28.6297 13.3137 25.3472C13.3137 25.3172 13.3137 25.2888 13.3137 25.26C14.2723 25.7937 15.3457 26.0903 16.4436 26.1232C13.4137 24.0989 12.4799 20.0684 14.31 16.9162C17.8111 21.2247 22.9766 23.8436 28.5218 24.1204C27.9658 21.7255 28.7257 19.2162 30.5168 17.5319C33.2949 14.9211 37.6631 15.055 40.2739 17.8314C41.8181 17.5266 43.2985 16.9601 44.653 16.1573C44.138 17.7539 43.0609 19.1098 41.6219 19.971C42.9886 19.8095 44.324 19.4438 45.5819 18.8854C44.6555 20.2726 43.4894 21.4816 42.1401 22.4576Z" fill="white"/>
</svg>
